<svg width="789" height="954" viewBox="0 0 789 954" fill="none" xmlns="http://www.w3.org/2000/svg">
<ellipse cx="783.818" cy="663.443" rx="4.82766" ry="4.64158" transform="rotate(90.0325 783.818 663.443)" fill="#DAE1FF"/>
<ellipse cx="783.81" cy="677.121" rx="4.82766" ry="4.64158" transform="rotate(90.0325 783.81 677.121)" fill="#DAE1FF"/>
<ellipse cx="765.167" cy="813.09" rx="9.65532" ry="9.28317" transform="rotate(90.0325 765.167 813.09)" fill="#DAE1FF"/>
<ellipse cx="738.139" cy="727.786" rx="9.65532" ry="9.28317" transform="rotate(90.0325 738.139 727.786)" fill="#DAE1FF"/>
<ellipse cx="738.091" cy="813.074" rx="9.65532" ry="9.28317" transform="rotate(90.0325 738.091 813.074)" fill="#DAE1FF"/>
<ellipse cx="711.015" cy="813.059" rx="9.65532" ry="9.28317" transform="rotate(90.0325 711.015 813.059)" fill="#DAE1FF"/>
<ellipse cx="710.998" cy="842.83" rx="9.65532" ry="9.28317" transform="rotate(90.0325 710.998 842.83)" fill="#DAE1FF"/>
<ellipse cx="683.922" cy="842.814" rx="9.65532" ry="9.28317" transform="rotate(90.0325 683.922 842.814)" fill="#DAE1FF"/>
<ellipse cx="656.846" cy="842.799" rx="9.65532" ry="9.28317" transform="rotate(90.0325 656.846 842.799)" fill="#DAE1FF"/>
<ellipse cx="629.77" cy="842.784" rx="9.65532" ry="9.28317" transform="rotate(90.0325 629.77 842.784)" fill="#DAE1FF"/>
<ellipse cx="602.695" cy="842.768" rx="9.65532" ry="9.28317" transform="rotate(90.0325 602.695 842.768)" fill="#DAE1FF"/>
<ellipse cx="594.169" cy="870.12" rx="9.65532" ry="9.28317" transform="rotate(90.0325 594.169 870.12)" fill="#DAE1FF"/>
<ellipse cx="552.395" cy="870.096" rx="9.65532" ry="9.28317" transform="rotate(90.0325 552.395 870.096)" fill="#DAE1FF"/>
<path d="M524.54 879.736C519.413 879.733 515.26 875.408 515.263 870.075C515.266 864.743 519.424 860.422 524.551 860.425C529.678 860.428 533.832 864.753 533.829 870.086C533.826 875.418 529.667 879.739 524.54 879.736Z" fill="#DAE1FF"/>
<ellipse cx="496.696" cy="870.065" rx="9.65532" ry="9.28317" transform="rotate(90.0325 496.696 870.065)" fill="#DAE1FF"/>
<ellipse cx="468.847" cy="870.049" rx="9.65532" ry="9.28317" transform="rotate(90.0325 468.847 870.049)" fill="#DAE1FF"/>
<ellipse cx="440.997" cy="870.033" rx="9.65532" ry="9.28317" transform="rotate(90.0325 440.997 870.033)" fill="#DAE1FF"/>
<ellipse cx="413.148" cy="870.018" rx="9.65532" ry="9.28317" transform="rotate(90.0325 413.148 870.018)" fill="#DAE1FF"/>
<ellipse cx="385.298" cy="870.002" rx="9.65532" ry="9.28317" transform="rotate(90.0325 385.298 870.002)" fill="#DAE1FF"/>
<ellipse cx="430.924" cy="899.798" rx="9.65532" ry="9.28317" transform="rotate(90.0325 430.924 899.798)" fill="#DAE1FF"/>
<ellipse cx="403.848" cy="899.783" rx="9.65532" ry="9.28317" transform="rotate(90.0325 403.848 899.783)" fill="#DAE1FF"/>
<ellipse cx="376.772" cy="899.767" rx="9.65532" ry="9.28317" transform="rotate(90.0325 376.772 899.767)" fill="#DAE1FF"/>
<ellipse cx="349.685" cy="919.063" rx="9.65532" ry="9.28317" transform="rotate(90.0325 349.685 919.063)" fill="#DAE1FF"/>
<ellipse cx="322.598" cy="938.358" rx="9.65532" ry="9.28317" transform="rotate(90.0325 322.598 938.358)" fill="#DAE1FF"/>
<ellipse cx="575.619" cy="842.753" rx="9.65532" ry="9.28317" transform="rotate(90.0325 575.619 842.753)" fill="#DAE1FF"/>
<ellipse cx="548.543" cy="842.738" rx="9.65532" ry="9.28317" transform="rotate(90.0325 548.543 842.738)" fill="#DAE1FF"/>
<ellipse cx="521.467" cy="842.722" rx="9.65532" ry="9.28317" transform="rotate(90.0325 521.467 842.722)" fill="#DAE1FF"/>
<ellipse cx="494.391" cy="842.707" rx="9.65532" ry="9.28317" transform="rotate(90.0325 494.391 842.707)" fill="#DAE1FF"/>
<ellipse cx="467.315" cy="842.691" rx="9.65532" ry="9.28317" transform="rotate(90.0325 467.315 842.691)" fill="#DAE1FF"/>
<ellipse cx="440.239" cy="842.676" rx="9.65532" ry="9.28317" transform="rotate(90.0325 440.239 842.676)" fill="#DAE1FF"/>
<ellipse cx="413.163" cy="842.661" rx="9.65532" ry="9.28317" transform="rotate(90.0325 413.163 842.661)" fill="#DAE1FF"/>
<ellipse cx="683.939" cy="813.044" rx="9.65532" ry="9.28317" transform="rotate(90.0325 683.939 813.044)" fill="#DAE1FF"/>
<ellipse cx="656.863" cy="813.028" rx="9.65532" ry="9.28317" transform="rotate(90.0325 656.863 813.028)" fill="#DAE1FF"/>
<ellipse cx="629.787" cy="813.013" rx="9.65532" ry="9.28317" transform="rotate(90.0325 629.787 813.013)" fill="#DAE1FF"/>
<ellipse cx="602.711" cy="812.998" rx="9.65532" ry="9.28317" transform="rotate(90.0325 602.711 812.998)" fill="#DAE1FF"/>
<ellipse cx="575.636" cy="812.982" rx="9.65532" ry="9.28317" transform="rotate(90.0325 575.636 812.982)" fill="#DAE1FF"/>
<ellipse cx="548.56" cy="812.967" rx="9.65532" ry="9.28317" transform="rotate(90.0325 548.56 812.967)" fill="#DAE1FF"/>
<ellipse cx="521.484" cy="812.952" rx="9.65532" ry="9.28317" transform="rotate(90.0325 521.484 812.952)" fill="#DAE1FF"/>
<ellipse cx="494.408" cy="812.936" rx="9.65532" ry="9.28317" transform="rotate(90.0325 494.408 812.936)" fill="#DAE1FF"/>
<ellipse cx="711.031" cy="784.093" rx="9.65532" ry="9.28317" transform="rotate(90.0325 711.031 784.093)" fill="#DAE1FF"/>
<ellipse cx="683.956" cy="784.078" rx="9.65532" ry="9.28317" transform="rotate(90.0325 683.956 784.078)" fill="#DAE1FF"/>
<ellipse cx="656.88" cy="784.062" rx="9.65532" ry="9.28317" transform="rotate(90.0325 656.88 784.062)" fill="#DAE1FF"/>
<ellipse cx="629.804" cy="784.047" rx="9.65532" ry="9.28317" transform="rotate(90.0325 629.804 784.047)" fill="#DAE1FF"/>
<ellipse cx="602.728" cy="784.032" rx="9.65532" ry="9.28317" transform="rotate(90.0325 602.728 784.032)" fill="#DAE1FF"/>
<ellipse cx="575.652" cy="784.016" rx="9.65532" ry="9.28317" transform="rotate(90.0325 575.652 784.016)" fill="#DAE1FF"/>
<ellipse cx="548.576" cy="784.001" rx="9.65532" ry="9.28317" transform="rotate(90.0325 548.576 784.001)" fill="#DAE1FF"/>
<ellipse cx="521.5" cy="783.986" rx="9.65532" ry="9.28317" transform="rotate(90.0325 521.5 783.986)" fill="#DAE1FF"/>
<ellipse cx="494.424" cy="783.97" rx="9.65532" ry="9.28317" transform="rotate(90.0325 494.424 783.97)" fill="#DAE1FF"/>
<ellipse cx="467.348" cy="783.955" rx="9.65532" ry="9.28317" transform="rotate(90.0325 467.348 783.955)" fill="#DAE1FF"/>
<ellipse cx="711.048" cy="755.127" rx="9.65532" ry="9.28317" transform="rotate(90.0325 711.048 755.127)" fill="#DAE1FF"/>
<ellipse cx="711.065" cy="725.357" rx="9.65532" ry="9.28317" transform="rotate(90.0325 711.065 725.357)" fill="#DAE1FF"/>
<ellipse cx="683.988" cy="726.146" rx="9.65532" ry="9.28317" transform="rotate(90.0325 683.988 726.146)" fill="#DAE1FF"/>
<ellipse cx="656.913" cy="726.131" rx="9.65532" ry="9.28317" transform="rotate(90.0325 656.913 726.131)" fill="#DAE1FF"/>
<ellipse cx="629.837" cy="725.311" rx="9.65532" ry="9.28317" transform="rotate(90.0325 629.837 725.311)" fill="#DAE1FF"/>
<ellipse cx="602.761" cy="725.295" rx="9.65532" ry="9.28317" transform="rotate(90.0325 602.761 725.295)" fill="#DAE1FF"/>
<ellipse cx="575.685" cy="725.28" rx="9.65532" ry="9.28317" transform="rotate(90.0325 575.685 725.28)" fill="#DAE1FF"/>
<ellipse cx="548.609" cy="725.264" rx="9.65532" ry="9.28317" transform="rotate(90.0325 548.609 725.264)" fill="#DAE1FF"/>
<ellipse cx="521.534" cy="725.249" rx="9.65532" ry="9.28317" transform="rotate(90.0325 521.534 725.249)" fill="#DAE1FF"/>
<ellipse cx="494.458" cy="725.234" rx="9.65532" ry="9.28317" transform="rotate(90.0325 494.458 725.234)" fill="#DAE1FF"/>
<ellipse cx="467.382" cy="725.218" rx="9.65532" ry="9.28317" transform="rotate(90.0325 467.382 725.218)" fill="#DAE1FF"/>
<ellipse cx="440.306" cy="725.203" rx="9.65532" ry="9.28317" transform="rotate(90.0325 440.306 725.203)" fill="#DAE1FF"/>
<ellipse cx="413.23" cy="725.188" rx="9.65532" ry="9.28317" transform="rotate(90.0325 413.23 725.188)" fill="#DAE1FF"/>
<ellipse cx="765.232" cy="698.031" rx="9.65532" ry="9.28317" transform="rotate(90.0325 765.232 698.031)" fill="#DAE1FF"/>
<ellipse cx="738.173" cy="668.245" rx="9.65532" ry="9.28317" transform="rotate(90.0325 738.173 668.245)" fill="#DAE1FF"/>
<ellipse cx="711.097" cy="668.229" rx="9.65532" ry="9.28317" transform="rotate(90.0325 711.097 668.229)" fill="#DAE1FF"/>
<ellipse cx="711.097" cy="668.229" rx="9.65532" ry="9.28317" transform="rotate(90.0325 711.097 668.229)" fill="#DAE1FF"/>
<ellipse cx="711.097" cy="668.229" rx="9.65532" ry="9.28317" transform="rotate(90.0325 711.097 668.229)" fill="#DAE1FF"/>
<ellipse cx="711.097" cy="669.034" rx="9.65532" ry="9.28317" transform="rotate(90.0325 711.097 669.034)" fill="#DAE1FF"/>
<ellipse cx="684.021" cy="669.019" rx="9.65532" ry="9.28317" transform="rotate(90.0325 684.021 669.019)" fill="#DAE1FF"/>
<ellipse cx="656.945" cy="669.003" rx="9.65532" ry="9.28317" transform="rotate(90.0325 656.945 669.003)" fill="#DAE1FF"/>
<ellipse cx="629.869" cy="668.988" rx="9.65532" ry="9.28317" transform="rotate(90.0325 629.869 668.988)" fill="#DAE1FF"/>
<ellipse cx="602.793" cy="668.973" rx="9.65532" ry="9.28317" transform="rotate(90.0325 602.793 668.973)" fill="#DAE1FF"/>
<ellipse cx="575.717" cy="668.957" rx="9.65532" ry="9.28317" transform="rotate(90.0325 575.717 668.957)" fill="#DAE1FF"/>
<ellipse cx="548.641" cy="668.942" rx="9.65532" ry="9.28317" transform="rotate(90.0325 548.641 668.942)" fill="#DAE1FF"/>
<ellipse cx="521.565" cy="668.926" rx="9.65532" ry="9.28317" transform="rotate(90.0325 521.565 668.926)" fill="#DAE1FF"/>
<ellipse cx="494.49" cy="668.911" rx="9.65532" ry="9.28317" transform="rotate(90.0325 494.49 668.911)" fill="#DAE1FF"/>
<ellipse cx="467.414" cy="668.896" rx="9.65532" ry="9.28317" transform="rotate(90.0325 467.414 668.896)" fill="#DAE1FF"/>
<ellipse cx="440.338" cy="668.88" rx="9.65532" ry="9.28317" transform="rotate(90.0325 440.338 668.88)" fill="#DAE1FF"/>
<ellipse cx="413.262" cy="668.865" rx="9.65532" ry="9.28317" transform="rotate(90.0325 413.262 668.865)" fill="#DAE1FF"/>
<ellipse cx="765.249" cy="668.26" rx="9.65532" ry="9.28317" transform="rotate(90.0325 765.249 668.26)" fill="#DAE1FF"/>
<ellipse cx="765.265" cy="640.099" rx="9.65532" ry="9.28317" transform="rotate(90.0325 765.265 640.099)" fill="#DAE1FF"/>
<ellipse cx="738.189" cy="640.083" rx="9.65532" ry="9.28317" transform="rotate(90.0325 738.189 640.083)" fill="#DAE1FF"/>
<ellipse cx="711.113" cy="640.068" rx="9.65532" ry="9.28317" transform="rotate(90.0325 711.113 640.068)" fill="#DAE1FF"/>
<ellipse cx="684.037" cy="640.053" rx="9.65532" ry="9.28317" transform="rotate(90.0325 684.037 640.053)" fill="#DAE1FF"/>
<ellipse cx="656.961" cy="640.037" rx="9.65532" ry="9.28317" transform="rotate(90.0325 656.961 640.037)" fill="#DAE1FF"/>
<ellipse cx="656.978" cy="611.071" rx="9.65532" ry="9.28317" transform="rotate(90.0325 656.978 611.071)" fill="#DAE1FF"/>
<ellipse cx="656.994" cy="582.105" rx="9.65532" ry="9.28317" transform="rotate(90.0325 656.994 582.105)" fill="#DAE1FF"/>
<ellipse cx="683.288" cy="596.603" rx="9.65532" ry="9.28317" transform="rotate(90.0325 683.288 596.603)" fill="#DAE1FF"/>
<ellipse cx="657.011" cy="553.139" rx="9.65532" ry="9.28317" transform="rotate(90.0325 657.011 553.139)" fill="#DAE1FF"/>
<ellipse cx="629.885" cy="640.022" rx="9.65532" ry="9.28317" transform="rotate(90.0325 629.885 640.022)" fill="#DAE1FF"/>
<ellipse cx="629.902" cy="611.056" rx="9.65532" ry="9.28317" transform="rotate(90.0325 629.902 611.056)" fill="#DAE1FF"/>
<ellipse cx="629.918" cy="582.09" rx="9.65532" ry="9.28317" transform="rotate(90.0325 629.918 582.09)" fill="#DAE1FF"/>
<ellipse cx="629.935" cy="553.124" rx="9.65532" ry="9.28317" transform="rotate(90.0325 629.935 553.124)" fill="#DAE1FF"/>
<ellipse cx="629.951" cy="524.158" rx="9.65532" ry="9.28317" transform="rotate(90.0325 629.951 524.158)" fill="#DAE1FF"/>
<ellipse cx="629.968" cy="495.192" rx="9.65532" ry="9.28317" transform="rotate(90.0325 629.968 495.192)" fill="#DAE1FF"/>
<ellipse cx="602.81" cy="640.007" rx="9.65532" ry="9.28317" transform="rotate(90.0325 602.81 640.007)" fill="#DAE1FF"/>
<ellipse cx="602.826" cy="610.236" rx="9.65532" ry="9.28317" transform="rotate(90.0325 602.826 610.236)" fill="#DAE1FF"/>
<ellipse cx="602.843" cy="580.465" rx="9.65532" ry="9.28317" transform="rotate(90.0325 602.843 580.465)" fill="#DAE1FF"/>
<ellipse cx="602.86" cy="550.695" rx="9.65532" ry="9.28317" transform="rotate(90.0325 602.86 550.695)" fill="#DAE1FF"/>
<ellipse cx="602.877" cy="520.924" rx="9.65532" ry="9.28317" transform="rotate(90.0325 602.877 520.924)" fill="#DAE1FF"/>
<ellipse cx="602.894" cy="491.154" rx="9.65532" ry="9.28317" transform="rotate(90.0325 602.894 491.154)" fill="#DAE1FF"/>
<ellipse cx="602.911" cy="461.383" rx="9.65532" ry="9.28317" transform="rotate(90.0325 602.911 461.383)" fill="#DAE1FF"/>
<ellipse cx="575.734" cy="639.991" rx="9.65532" ry="9.28317" transform="rotate(90.0325 575.734 639.991)" fill="#DAE1FF"/>
<ellipse cx="575.751" cy="610.221" rx="9.65532" ry="9.28317" transform="rotate(90.0325 575.751 610.221)" fill="#DAE1FF"/>
<ellipse cx="575.767" cy="580.45" rx="9.65532" ry="9.28317" transform="rotate(90.0325 575.767 580.45)" fill="#DAE1FF"/>
<ellipse cx="575.784" cy="550.68" rx="9.65532" ry="9.28317" transform="rotate(90.0325 575.784 550.68)" fill="#DAE1FF"/>
<ellipse cx="575.801" cy="520.909" rx="9.65532" ry="9.28317" transform="rotate(90.0325 575.801 520.909)" fill="#DAE1FF"/>
<ellipse cx="575.818" cy="491.138" rx="9.65532" ry="9.28317" transform="rotate(90.0325 575.818 491.138)" fill="#DAE1FF"/>
<ellipse cx="575.835" cy="461.368" rx="9.65532" ry="9.28317" transform="rotate(90.0325 575.835 461.368)" fill="#DAE1FF"/>
<ellipse cx="575.852" cy="431.597" rx="9.65532" ry="9.28317" transform="rotate(90.0325 575.852 431.597)" fill="#DAE1FF"/>
<ellipse cx="548.658" cy="639.976" rx="9.65532" ry="9.28317" transform="rotate(90.0325 548.658 639.976)" fill="#DAE1FF"/>
<ellipse cx="548.675" cy="610.205" rx="9.65532" ry="9.28317" transform="rotate(90.0325 548.675 610.205)" fill="#DAE1FF"/>
<ellipse cx="548.692" cy="580.435" rx="9.65532" ry="9.28317" transform="rotate(90.0325 548.692 580.435)" fill="#DAE1FF"/>
<ellipse cx="548.708" cy="550.664" rx="9.65532" ry="9.28317" transform="rotate(90.0325 548.708 550.664)" fill="#DAE1FF"/>
<ellipse cx="548.725" cy="520.894" rx="9.65532" ry="9.28317" transform="rotate(90.0325 548.725 520.894)" fill="#DAE1FF"/>
<ellipse cx="548.742" cy="491.123" rx="9.65532" ry="9.28317" transform="rotate(90.0325 548.742 491.123)" fill="#DAE1FF"/>
<ellipse cx="548.759" cy="461.352" rx="9.65532" ry="9.28317" transform="rotate(90.0325 548.759 461.352)" fill="#DAE1FF"/>
<ellipse cx="548.776" cy="431.582" rx="9.65532" ry="9.28317" transform="rotate(90.0325 548.776 431.582)" fill="#DAE1FF"/>
<ellipse cx="548.793" cy="401.811" rx="9.65532" ry="9.28317" transform="rotate(90.0325 548.793 401.811)" fill="#DAE1FF"/>
<ellipse cx="548.81" cy="372.041" rx="9.65532" ry="9.28317" transform="rotate(90.0325 548.81 372.041)" fill="#DAE1FF"/>
<ellipse cx="548.827" cy="342.27" rx="9.65532" ry="9.28317" transform="rotate(90.0325 548.827 342.27)" fill="#DAE1FF"/>
<ellipse cx="521.582" cy="639.961" rx="9.65532" ry="9.28317" transform="rotate(90.0325 521.582 639.961)" fill="#DAE1FF"/>
<ellipse cx="521.599" cy="610.19" rx="9.65532" ry="9.28317" transform="rotate(90.0325 521.599 610.19)" fill="#DAE1FF"/>
<ellipse cx="521.616" cy="580.419" rx="9.65532" ry="9.28317" transform="rotate(90.0325 521.616 580.419)" fill="#DAE1FF"/>
<ellipse cx="521.633" cy="550.649" rx="9.65532" ry="9.28317" transform="rotate(90.0325 521.633 550.649)" fill="#DAE1FF"/>
<ellipse cx="521.649" cy="520.878" rx="9.65532" ry="9.28317" transform="rotate(90.0325 521.649 520.878)" fill="#DAE1FF"/>
<ellipse cx="521.666" cy="491.108" rx="9.65532" ry="9.28317" transform="rotate(90.0325 521.666 491.108)" fill="#DAE1FF"/>
<ellipse cx="521.683" cy="461.337" rx="9.65532" ry="9.28317" transform="rotate(90.0325 521.683 461.337)" fill="#DAE1FF"/>
<ellipse cx="521.7" cy="431.567" rx="9.65532" ry="9.28317" transform="rotate(90.0325 521.7 431.567)" fill="#DAE1FF"/>
<ellipse cx="521.717" cy="401.796" rx="9.65532" ry="9.28317" transform="rotate(90.0325 521.717 401.796)" fill="#DAE1FF"/>
<ellipse cx="521.734" cy="372.025" rx="9.65532" ry="9.28317" transform="rotate(90.0325 521.734 372.025)" fill="#DAE1FF"/>
<ellipse cx="521.751" cy="342.255" rx="9.65532" ry="9.28317" transform="rotate(90.0325 521.751 342.255)" fill="#DAE1FF"/>
<ellipse cx="521.768" cy="312.484" rx="9.65532" ry="9.28317" transform="rotate(90.0325 521.768 312.484)" fill="#DAE1FF"/>
<ellipse cx="494.506" cy="639.945" rx="9.65532" ry="9.28317" transform="rotate(90.0325 494.506 639.945)" fill="#DAE1FF"/>
<ellipse cx="494.523" cy="610.175" rx="9.65532" ry="9.28317" transform="rotate(90.0325 494.523 610.175)" fill="#DAE1FF"/>
<ellipse cx="467.447" cy="610.159" rx="9.65532" ry="9.28317" transform="rotate(90.0325 467.447 610.159)" fill="#DAE1FF"/>
<ellipse cx="440.371" cy="610.144" rx="9.65532" ry="9.28317" transform="rotate(90.0325 440.371 610.144)" fill="#DAE1FF"/>
<ellipse cx="413.295" cy="610.129" rx="9.65532" ry="9.28317" transform="rotate(90.0325 413.295 610.129)" fill="#DAE1FF"/>
<ellipse cx="494.54" cy="580.404" rx="9.65532" ry="9.28317" transform="rotate(90.0325 494.54 580.404)" fill="#DAE1FF"/>
<ellipse cx="494.557" cy="550.633" rx="9.65532" ry="9.28317" transform="rotate(90.0325 494.557 550.633)" fill="#DAE1FF"/>
<ellipse cx="494.574" cy="520.863" rx="9.65532" ry="9.28317" transform="rotate(90.0325 494.574 520.863)" fill="#DAE1FF"/>
<ellipse cx="494.59" cy="491.092" rx="9.65532" ry="9.28317" transform="rotate(90.0325 494.59 491.092)" fill="#DAE1FF"/>
<ellipse cx="494.607" cy="461.322" rx="9.65532" ry="9.28317" transform="rotate(90.0325 494.607 461.322)" fill="#DAE1FF"/>
<ellipse cx="469.079" cy="461.307" rx="9.65532" ry="9.28317" transform="rotate(90.0325 469.079 461.307)" fill="#DAE1FF"/>
<ellipse cx="467.515" cy="491.077" rx="9.65532" ry="9.28317" transform="rotate(90.0325 467.515 491.077)" fill="#DAE1FF"/>
<ellipse cx="467.548" cy="431.536" rx="9.65532" ry="9.28317" transform="rotate(90.0325 467.548 431.536)" fill="#DAE1FF"/>
<ellipse cx="466.018" cy="401.764" rx="9.65532" ry="9.28317" transform="rotate(90.0325 466.018 401.764)" fill="#DAE1FF"/>
<ellipse cx="465.261" cy="371.993" rx="9.65532" ry="9.28317" transform="rotate(90.0325 465.261 371.993)" fill="#DAE1FF"/>
<ellipse cx="438.185" cy="371.978" rx="9.65532" ry="9.28317" transform="rotate(90.0325 438.185 371.978)" fill="#DAE1FF"/>
<ellipse cx="411.109" cy="371.963" rx="9.65532" ry="9.28317" transform="rotate(90.0325 411.109 371.963)" fill="#DAE1FF"/>
<ellipse cx="384.034" cy="371.947" rx="9.65532" ry="9.28317" transform="rotate(90.0325 384.034 371.947)" fill="#DAE1FF"/>
<ellipse cx="464.505" cy="342.222" rx="9.65532" ry="9.28317" transform="rotate(90.0325 464.505 342.222)" fill="#DAE1FF"/>
<ellipse cx="438.202" cy="342.207" rx="9.65532" ry="9.28317" transform="rotate(90.0325 438.202 342.207)" fill="#DAE1FF"/>
<ellipse cx="411.9" cy="342.193" rx="9.65532" ry="9.28317" transform="rotate(90.0325 411.9 342.193)" fill="#DAE1FF"/>
<ellipse cx="385.598" cy="342.178" rx="9.65532" ry="9.28317" transform="rotate(90.0325 385.598 342.178)" fill="#DAE1FF"/>
<ellipse cx="464.521" cy="313.256" rx="9.65532" ry="9.28317" transform="rotate(90.0325 464.521 313.256)" fill="#DAE1FF"/>
<ellipse cx="463.008" cy="252.105" rx="9.65532" ry="9.28317" transform="rotate(90.0325 463.008 252.105)" fill="#DAE1FF"/>
<ellipse cx="463.798" cy="223.14" rx="9.65532" ry="9.28317" transform="rotate(90.0325 463.798 223.14)" fill="#DAE1FF"/>
<ellipse cx="463.059" cy="163.598" rx="9.65532" ry="9.28317" transform="rotate(90.0325 463.059 163.598)" fill="#DAE1FF"/>
<ellipse cx="463.849" cy="133.828" rx="9.65532" ry="9.28317" transform="rotate(90.0325 463.849 133.828)" fill="#DAE1FF"/>
<ellipse cx="490.151" cy="133.843" rx="9.65532" ry="9.28317" transform="rotate(90.0325 490.151 133.843)" fill="#DAE1FF"/>
<ellipse cx="516.454" cy="133.858" rx="9.65532" ry="9.28317" transform="rotate(90.0325 516.454 133.858)" fill="#DAE1FF"/>
<ellipse cx="489.361" cy="163.613" rx="9.65532" ry="9.28317" transform="rotate(90.0325 489.361 163.613)" fill="#DAE1FF"/>
<ellipse cx="490.118" cy="192.579" rx="9.65532" ry="9.28317" transform="rotate(90.0325 490.118 192.579)" fill="#DAE1FF"/>
<ellipse cx="490.102" cy="220.741" rx="9.65532" ry="9.28317" transform="rotate(90.0325 490.102 220.741)" fill="#DAE1FF"/>
<ellipse cx="463.042" cy="192.564" rx="9.65532" ry="9.28317" transform="rotate(90.0325 463.042 192.564)" fill="#DAE1FF"/>
<ellipse cx="435.125" cy="312.435" rx="9.65532" ry="9.28317" transform="rotate(90.0325 435.125 312.435)" fill="#DAE1FF"/>
<ellipse cx="435.915" cy="282.665" rx="9.65532" ry="9.28317" transform="rotate(90.0325 435.915 282.665)" fill="#DAE1FF"/>
<ellipse cx="435.159" cy="252.894" rx="9.65532" ry="9.28317" transform="rotate(90.0325 435.159 252.894)" fill="#DAE1FF"/>
<ellipse cx="435.949" cy="223.124" rx="9.65532" ry="9.28317" transform="rotate(90.0325 435.949 223.124)" fill="#DAE1FF"/>
<ellipse cx="434.419" cy="193.352" rx="9.65532" ry="9.28317" transform="rotate(90.0325 434.419 193.352)" fill="#DAE1FF"/>
<ellipse cx="436.756" cy="163.583" rx="9.65532" ry="9.28317" transform="rotate(90.0325 436.756 163.583)" fill="#DAE1FF"/>
<ellipse cx="437.547" cy="133.813" rx="9.65532" ry="9.28317" transform="rotate(90.0325 437.547 133.813)" fill="#DAE1FF"/>
<ellipse cx="405.728" cy="312.419" rx="9.65532" ry="9.28317" transform="rotate(90.0325 405.728 312.419)" fill="#DAE1FF"/>
<ellipse cx="405.745" cy="282.648" rx="9.65532" ry="9.28317" transform="rotate(90.0325 405.745 282.648)" fill="#DAE1FF"/>
<ellipse cx="405.762" cy="252.877" rx="9.65532" ry="9.28317" transform="rotate(90.0325 405.762 252.877)" fill="#DAE1FF"/>
<ellipse cx="405.779" cy="223.107" rx="9.65532" ry="9.28317" transform="rotate(90.0325 405.779 223.107)" fill="#DAE1FF"/>
<ellipse cx="405.796" cy="193.336" rx="9.65532" ry="9.28317" transform="rotate(90.0325 405.796 193.336)" fill="#DAE1FF"/>
<ellipse cx="405.812" cy="163.566" rx="9.65532" ry="9.28317" transform="rotate(90.0325 405.812 163.566)" fill="#DAE1FF"/>
<ellipse cx="376.331" cy="312.402" rx="9.65532" ry="9.28317" transform="rotate(90.0325 376.331 312.402)" fill="#DAE1FF"/>
<ellipse cx="376.348" cy="282.631" rx="9.65532" ry="9.28317" transform="rotate(90.0325 376.348 282.631)" fill="#DAE1FF"/>
<ellipse cx="376.365" cy="252.861" rx="9.65532" ry="9.28317" transform="rotate(90.0325 376.365 252.861)" fill="#DAE1FF"/>
<ellipse cx="376.382" cy="223.09" rx="9.65532" ry="9.28317" transform="rotate(90.0325 376.382 223.09)" fill="#DAE1FF"/>
<ellipse cx="376.399" cy="193.32" rx="9.65532" ry="9.28317" transform="rotate(90.0325 376.399 193.32)" fill="#DAE1FF"/>
<ellipse cx="376.416" cy="163.549" rx="9.65532" ry="9.28317" transform="rotate(90.0325 376.416 163.549)" fill="#DAE1FF"/>
<ellipse cx="376.433" cy="133.778" rx="9.65532" ry="9.28317" transform="rotate(90.0325 376.433 133.778)" fill="#DAE1FF"/>
<ellipse cx="376.45" cy="104.008" rx="9.65532" ry="9.28317" transform="rotate(90.0325 376.45 104.008)" fill="#DAE1FF"/>
<ellipse cx="376.466" cy="74.2373" rx="9.65532" ry="9.28317" transform="rotate(90.0325 376.466 74.2373)" fill="#DAE1FF"/>
<ellipse cx="376.483" cy="44.4668" rx="9.65532" ry="9.28317" transform="rotate(90.0325 376.483 44.4668)" fill="#DAE1FF"/>
<ellipse cx="402.012" cy="45.2859" rx="9.65532" ry="9.28317" transform="rotate(90.0325 402.012 45.2859)" fill="#DAE1FF"/>
<ellipse cx="401.995" cy="74.2518" rx="9.65532" ry="9.28317" transform="rotate(90.0325 401.995 74.2518)" fill="#DAE1FF"/>
<ellipse cx="427.54" cy="46.1049" rx="9.65532" ry="9.28317" transform="rotate(90.0325 427.54 46.1049)" fill="#DAE1FF"/>
<ellipse cx="347.07" cy="74.2207" rx="9.65532" ry="9.28317" transform="rotate(90.0325 347.07 74.2207)" fill="#DAE1FF"/>
<ellipse cx="346.935" cy="312.385" rx="9.65532" ry="9.28317" transform="rotate(90.0325 346.935 312.385)" fill="#DAE1FF"/>
<ellipse cx="319.862" cy="307.542" rx="9.65532" ry="9.28317" transform="rotate(90.0325 319.862 307.542)" fill="#DAE1FF"/>
<ellipse cx="292.788" cy="302.699" rx="9.65532" ry="9.28317" transform="rotate(90.0325 292.788 302.699)" fill="#DAE1FF"/>
<ellipse cx="278.852" cy="322.807" rx="9.65532" ry="9.28317" transform="rotate(90.0325 278.852 322.807)" fill="#DAE1FF"/>
<ellipse cx="346.952" cy="282.615" rx="9.65532" ry="9.28317" transform="rotate(90.0325 346.952 282.615)" fill="#DAE1FF"/>
<ellipse cx="346.968" cy="252.844" rx="9.65532" ry="9.28317" transform="rotate(90.0325 346.968 252.844)" fill="#DAE1FF"/>
<ellipse cx="346.985" cy="223.073" rx="9.65532" ry="9.28317" transform="rotate(90.0325 346.985 223.073)" fill="#DAE1FF"/>
<ellipse cx="347.002" cy="193.303" rx="9.65532" ry="9.28317" transform="rotate(90.0325 347.002 193.303)" fill="#DAE1FF"/>
<ellipse cx="347.019" cy="163.532" rx="9.65532" ry="9.28317" transform="rotate(90.0325 347.019 163.532)" fill="#DAE1FF"/>
<ellipse cx="347.036" cy="133.762" rx="9.65532" ry="9.28317" transform="rotate(90.0325 347.036 133.762)" fill="#DAE1FF"/>
<ellipse cx="347.053" cy="103.991" rx="9.65532" ry="9.28317" transform="rotate(90.0325 347.053 103.991)" fill="#DAE1FF"/>
<ellipse cx="317.64" cy="132.941" rx="9.65532" ry="9.28317" transform="rotate(90.0325 317.64 132.941)" fill="#DAE1FF"/>
<ellipse cx="288.243" cy="132.924" rx="9.65532" ry="9.28317" transform="rotate(90.0325 288.243 132.924)" fill="#DAE1FF"/>
<ellipse cx="317.622" cy="163.516" rx="9.65532" ry="9.28317" transform="rotate(90.0325 317.622 163.516)" fill="#DAE1FF"/>
<ellipse cx="317.605" cy="194.091" rx="9.65532" ry="9.28317" transform="rotate(90.0325 317.605 194.091)" fill="#DAE1FF"/>
<ellipse cx="317.588" cy="224.666" rx="9.65532" ry="9.28317" transform="rotate(90.0325 317.588 224.666)" fill="#DAE1FF"/>
<ellipse cx="292.819" cy="247.986" rx="9.65532" ry="9.28317" transform="rotate(90.0325 292.819 247.986)" fill="#DAE1FF"/>
<ellipse cx="317.656" cy="103.975" rx="9.65532" ry="9.28317" transform="rotate(90.0325 317.656 103.975)" fill="#DAE1FF"/>
<ellipse cx="288.259" cy="103.958" rx="9.65532" ry="9.28317" transform="rotate(90.0325 288.259 103.958)" fill="#DAE1FF"/>
<ellipse cx="282.104" cy="46.0225" rx="9.65532" ry="9.28317" transform="rotate(90.0325 282.104 46.0225)" fill="#DAE1FF"/>
<ellipse cx="268.164" cy="72.5667" rx="9.65532" ry="9.28317" transform="rotate(90.0325 268.164 72.5667)" fill="#DAE1FF"/>
<ellipse cx="445.097" cy="461.294" rx="9.65532" ry="9.28317" transform="rotate(90.0325 445.097 461.294)" fill="#DAE1FF"/>
<ellipse cx="380.096" cy="495.05" rx="9.65532" ry="9.28317" transform="rotate(90.0325 380.096 495.05)" fill="#DAE1FF"/>
<ellipse cx="58.2817" cy="490.845" rx="9.65532" ry="9.28317" transform="rotate(90.0325 58.2817 490.845)" fill="#DAE1FF"/>
<ellipse cx="58.2648" cy="520.615" rx="9.65532" ry="9.28317" transform="rotate(90.0325 58.2648 520.615)" fill="#DAE1FF"/>
<ellipse cx="86.1143" cy="520.631" rx="9.65532" ry="9.28317" transform="rotate(90.0325 86.1143 520.631)" fill="#DAE1FF"/>
<ellipse cx="113.964" cy="520.647" rx="9.65532" ry="9.28317" transform="rotate(90.0325 113.964 520.647)" fill="#DAE1FF"/>
<ellipse cx="141.813" cy="520.663" rx="9.65532" ry="9.28317" transform="rotate(90.0325 141.813 520.663)" fill="#DAE1FF"/>
<ellipse cx="169.663" cy="520.679" rx="9.65532" ry="9.28317" transform="rotate(90.0325 169.663 520.679)" fill="#DAE1FF"/>
<ellipse cx="197.512" cy="520.694" rx="9.65532" ry="9.28317" transform="rotate(90.0325 197.512 520.694)" fill="#DAE1FF"/>
<ellipse cx="225.362" cy="520.71" rx="9.65532" ry="9.28317" transform="rotate(90.0325 225.362 520.71)" fill="#DAE1FF"/>
<ellipse cx="253.211" cy="520.726" rx="9.65532" ry="9.28317" transform="rotate(90.0325 253.211 520.726)" fill="#DAE1FF"/>
<ellipse cx="58.248" cy="550.386" rx="9.65532" ry="9.28317" transform="rotate(90.0325 58.248 550.386)" fill="#DAE1FF"/>
<ellipse cx="86.0974" cy="550.402" rx="9.65532" ry="9.28317" transform="rotate(90.0325 86.0974 550.402)" fill="#DAE1FF"/>
<ellipse cx="72.1581" cy="576.141" rx="9.65532" ry="9.28317" transform="rotate(90.0325 72.1581 576.141)" fill="#DAE1FF"/>
<ellipse cx="99.234" cy="576.157" rx="9.65532" ry="9.28317" transform="rotate(90.0325 99.234 576.157)" fill="#DAE1FF"/>
<ellipse cx="99.2158" cy="608.341" rx="9.65532" ry="9.28317" transform="rotate(90.0325 99.2158 608.341)" fill="#DAE1FF"/>
<ellipse cx="126.292" cy="608.357" rx="9.65532" ry="9.28317" transform="rotate(90.0325 126.292 608.357)" fill="#DAE1FF"/>
<ellipse cx="153.367" cy="608.372" rx="9.65532" ry="9.28317" transform="rotate(90.0325 153.367 608.372)" fill="#DAE1FF"/>
<ellipse cx="180.443" cy="608.387" rx="9.65532" ry="9.28317" transform="rotate(90.0325 180.443 608.387)" fill="#DAE1FF"/>
<ellipse cx="207.519" cy="608.403" rx="9.65532" ry="9.28317" transform="rotate(90.0325 207.519 608.403)" fill="#DAE1FF"/>
<ellipse cx="234.595" cy="608.418" rx="9.65532" ry="9.28317" transform="rotate(90.0325 234.595 608.418)" fill="#DAE1FF"/>
<ellipse cx="261.671" cy="608.433" rx="9.65532" ry="9.28317" transform="rotate(90.0325 261.671 608.433)" fill="#DAE1FF"/>
<ellipse cx="99.1974" cy="640.526" rx="9.65532" ry="9.28317" transform="rotate(90.0325 99.1974 640.526)" fill="#DAE1FF"/>
<ellipse cx="72.1216" cy="640.51" rx="9.65532" ry="9.28317" transform="rotate(90.0325 72.1216 640.51)" fill="#DAE1FF"/>
<ellipse cx="72.1033" cy="672.695" rx="9.65532" ry="9.28317" transform="rotate(90.0325 72.1033 672.695)" fill="#DAE1FF"/>
<ellipse cx="72.085" cy="704.879" rx="9.65532" ry="9.28317" transform="rotate(90.0325 72.085 704.879)" fill="#DAE1FF"/>
<ellipse cx="72.0668" cy="737.063" rx="9.65532" ry="9.28317" transform="rotate(90.0325 72.0668 737.063)" fill="#DAE1FF"/>
<ellipse cx="44.9909" cy="737.048" rx="9.65532" ry="9.28317" transform="rotate(90.0325 44.9909 737.048)" fill="#DAE1FF"/>
<ellipse cx="44.2356" cy="704.863" rx="9.65532" ry="9.28317" transform="rotate(90.0325 44.2356 704.863)" fill="#DAE1FF"/>
<ellipse cx="72.0486" cy="769.248" rx="9.65532" ry="9.28317" transform="rotate(90.0325 72.0486 769.248)" fill="#DAE1FF"/>
<ellipse cx="126.273" cy="640.541" rx="9.65532" ry="9.28317" transform="rotate(90.0325 126.273 640.541)" fill="#DAE1FF"/>
<ellipse cx="153.349" cy="640.556" rx="9.65532" ry="9.28317" transform="rotate(90.0325 153.349 640.556)" fill="#DAE1FF"/>
<ellipse cx="180.425" cy="640.572" rx="9.65532" ry="9.28317" transform="rotate(90.0325 180.425 640.572)" fill="#DAE1FF"/>
<ellipse cx="207.501" cy="640.587" rx="9.65532" ry="9.28317" transform="rotate(90.0325 207.501 640.587)" fill="#DAE1FF"/>
<ellipse cx="234.577" cy="640.602" rx="9.65532" ry="9.28317" transform="rotate(90.0325 234.577 640.602)" fill="#DAE1FF"/>
<ellipse cx="261.653" cy="640.618" rx="9.65532" ry="9.28317" transform="rotate(90.0325 261.653 640.618)" fill="#DAE1FF"/>
<ellipse cx="99.1792" cy="672.71" rx="9.65532" ry="9.28317" transform="rotate(90.0325 99.1792 672.71)" fill="#DAE1FF"/>
<ellipse cx="126.255" cy="672.725" rx="9.65532" ry="9.28317" transform="rotate(90.0325 126.255 672.725)" fill="#DAE1FF"/>
<ellipse cx="153.331" cy="672.741" rx="9.65532" ry="9.28317" transform="rotate(90.0325 153.331 672.741)" fill="#DAE1FF"/>
<ellipse cx="180.407" cy="672.756" rx="9.65532" ry="9.28317" transform="rotate(90.0325 180.407 672.756)" fill="#DAE1FF"/>
<ellipse cx="207.483" cy="672.771" rx="9.65532" ry="9.28317" transform="rotate(90.0325 207.483 672.771)" fill="#DAE1FF"/>
<ellipse cx="234.559" cy="672.787" rx="9.65532" ry="9.28317" transform="rotate(90.0325 234.559 672.787)" fill="#DAE1FF"/>
<ellipse cx="261.635" cy="672.802" rx="9.65532" ry="9.28317" transform="rotate(90.0325 261.635 672.802)" fill="#DAE1FF"/>
<ellipse cx="99.9346" cy="704.895" rx="9.65532" ry="9.28317" transform="rotate(90.0325 99.9346 704.895)" fill="#DAE1FF"/>
<ellipse cx="126.237" cy="704.91" rx="9.65532" ry="9.28317" transform="rotate(90.0325 126.237 704.91)" fill="#DAE1FF"/>
<ellipse cx="152.539" cy="704.925" rx="9.65532" ry="9.28317" transform="rotate(90.0325 152.539 704.925)" fill="#DAE1FF"/>
<ellipse cx="178.841" cy="704.94" rx="9.65532" ry="9.28317" transform="rotate(90.0325 178.841 704.94)" fill="#DAE1FF"/>
<ellipse cx="205.144" cy="704.954" rx="9.65532" ry="9.28317" transform="rotate(90.0325 205.144 704.954)" fill="#DAE1FF"/>
<ellipse cx="231.446" cy="704.969" rx="9.65532" ry="9.28317" transform="rotate(90.0325 231.446 704.969)" fill="#DAE1FF"/>
<ellipse cx="99.1427" cy="737.079" rx="9.65532" ry="9.28317" transform="rotate(90.0325 99.1427 737.079)" fill="#DAE1FF"/>
<ellipse cx="126.219" cy="737.094" rx="9.65532" ry="9.28317" transform="rotate(90.0325 126.219 737.094)" fill="#DAE1FF"/>
<ellipse cx="99.1244" cy="769.263" rx="9.65532" ry="9.28317" transform="rotate(90.0325 99.1244 769.263)" fill="#DAE1FF"/>
<ellipse cx="126.31" cy="576.172" rx="9.65532" ry="9.28317" transform="rotate(90.0325 126.31 576.172)" fill="#DAE1FF"/>
<ellipse cx="153.386" cy="576.188" rx="9.65532" ry="9.28317" transform="rotate(90.0325 153.386 576.188)" fill="#DAE1FF"/>
<ellipse cx="180.462" cy="576.203" rx="9.65532" ry="9.28317" transform="rotate(90.0325 180.462 576.203)" fill="#DAE1FF"/>
<ellipse cx="207.538" cy="576.218" rx="9.65532" ry="9.28317" transform="rotate(90.0325 207.538 576.218)" fill="#DAE1FF"/>
<ellipse cx="234.613" cy="576.234" rx="9.65532" ry="9.28317" transform="rotate(90.0325 234.613 576.234)" fill="#DAE1FF"/>
<ellipse cx="261.689" cy="576.249" rx="9.65532" ry="9.28317" transform="rotate(90.0325 261.689 576.249)" fill="#DAE1FF"/>
<ellipse cx="113.947" cy="550.418" rx="9.65532" ry="9.28317" transform="rotate(90.0325 113.947 550.418)" fill="#DAE1FF"/>
<ellipse cx="141.796" cy="550.433" rx="9.65532" ry="9.28317" transform="rotate(90.0325 141.796 550.433)" fill="#DAE1FF"/>
<ellipse cx="169.646" cy="550.449" rx="9.65532" ry="9.28317" transform="rotate(90.0325 169.646 550.449)" fill="#DAE1FF"/>
<ellipse cx="197.495" cy="550.465" rx="9.65532" ry="9.28317" transform="rotate(90.0325 197.495 550.465)" fill="#DAE1FF"/>
<ellipse cx="225.345" cy="550.481" rx="9.65532" ry="9.28317" transform="rotate(90.0325 225.345 550.481)" fill="#DAE1FF"/>
<ellipse cx="253.194" cy="550.497" rx="9.65532" ry="9.28317" transform="rotate(90.0325 253.194 550.497)" fill="#DAE1FF"/>
<ellipse cx="281.044" cy="550.512" rx="9.65532" ry="9.28317" transform="rotate(90.0325 281.044 550.512)" fill="#DAE1FF"/>
<ellipse cx="86.1312" cy="490.861" rx="9.65532" ry="9.28317" transform="rotate(90.0325 86.1312 490.861)" fill="#DAE1FF"/>
<ellipse cx="113.981" cy="490.876" rx="9.65532" ry="9.28317" transform="rotate(90.0325 113.981 490.876)" fill="#DAE1FF"/>
<ellipse cx="141.83" cy="490.892" rx="9.65532" ry="9.28317" transform="rotate(90.0325 141.83 490.892)" fill="#DAE1FF"/>
<ellipse cx="169.68" cy="490.908" rx="9.65532" ry="9.28317" transform="rotate(90.0325 169.68 490.908)" fill="#DAE1FF"/>
<ellipse cx="169.697" cy="461.137" rx="9.65532" ry="9.28317" transform="rotate(90.0325 169.697 461.137)" fill="#DAE1FF"/>
<ellipse cx="169.713" cy="431.367" rx="9.65532" ry="9.28317" transform="rotate(90.0325 169.713 431.367)" fill="#DAE1FF"/>
<ellipse cx="141.864" cy="431.351" rx="9.65532" ry="9.28317" transform="rotate(90.0325 141.864 431.351)" fill="#DAE1FF"/>
<ellipse cx="169.73" cy="401.596" rx="9.65532" ry="9.28317" transform="rotate(90.0325 169.73 401.596)" fill="#DAE1FF"/>
<ellipse cx="197.529" cy="490.924" rx="9.65532" ry="9.28317" transform="rotate(90.0325 197.529 490.924)" fill="#DAE1FF"/>
<ellipse cx="197.546" cy="461.153" rx="9.65532" ry="9.28317" transform="rotate(90.0325 197.546 461.153)" fill="#DAE1FF"/>
<ellipse cx="197.563" cy="431.383" rx="9.65532" ry="9.28317" transform="rotate(90.0325 197.563 431.383)" fill="#DAE1FF"/>
<ellipse cx="197.58" cy="401.612" rx="9.65532" ry="9.28317" transform="rotate(90.0325 197.58 401.612)" fill="#DAE1FF"/>
<ellipse cx="197.597" cy="371.842" rx="9.65532" ry="9.28317" transform="rotate(90.0325 197.597 371.842)" fill="#DAE1FF"/>
<ellipse cx="225.379" cy="490.94" rx="9.65532" ry="9.28317" transform="rotate(90.0325 225.379 490.94)" fill="#DAE1FF"/>
<ellipse cx="225.396" cy="461.169" rx="9.65532" ry="9.28317" transform="rotate(90.0325 225.396 461.169)" fill="#DAE1FF"/>
<ellipse cx="225.412" cy="431.399" rx="9.65532" ry="9.28317" transform="rotate(90.0325 225.412 431.399)" fill="#DAE1FF"/>
<ellipse cx="225.429" cy="401.628" rx="9.65532" ry="9.28317" transform="rotate(90.0325 225.429 401.628)" fill="#DAE1FF"/>
<ellipse cx="253.228" cy="490.955" rx="9.65532" ry="9.28317" transform="rotate(90.0325 253.228 490.955)" fill="#DAE1FF"/>
<ellipse cx="253.245" cy="461.185" rx="9.65532" ry="9.28317" transform="rotate(90.0325 253.245 461.185)" fill="#DAE1FF"/>
<ellipse cx="253.262" cy="431.414" rx="9.65532" ry="9.28317" transform="rotate(90.0325 253.262 431.414)" fill="#DAE1FF"/>
<ellipse cx="253.279" cy="401.644" rx="9.65532" ry="9.28317" transform="rotate(90.0325 253.279 401.644)" fill="#DAE1FF"/>
<ellipse cx="281.078" cy="490.971" rx="9.65532" ry="9.28317" transform="rotate(90.0325 281.078 490.971)" fill="#DAE1FF"/>
<ellipse cx="281.095" cy="461.201" rx="9.65532" ry="9.28317" transform="rotate(90.0325 281.095 461.201)" fill="#DAE1FF"/>
<ellipse cx="308.944" cy="461.216" rx="9.65532" ry="9.28317" transform="rotate(90.0325 308.944 461.216)" fill="#DAE1FF"/>
<ellipse cx="281.111" cy="431.43" rx="9.65532" ry="9.28317" transform="rotate(90.0325 281.111 431.43)" fill="#DAE1FF"/>
<ellipse cx="281.128" cy="401.66" rx="9.65532" ry="9.28317" transform="rotate(90.0325 281.128 401.66)" fill="#DAE1FF"/>
<ellipse cx="353.065" cy="416.183" rx="9.65532" ry="9.28317" transform="rotate(90.0325 353.065 416.183)" fill="#DAE1FF"/>
<ellipse cx="437.395" cy="401.748" rx="9.65532" ry="9.28317" transform="rotate(90.0325 437.395 401.748)" fill="#DAE1FF"/>
<ellipse cx="408.772" cy="400.927" rx="9.65532" ry="9.28317" transform="rotate(90.0325 408.772 400.927)" fill="#DAE1FF"/>
<ellipse cx="380.15" cy="400.107" rx="9.65532" ry="9.28317" transform="rotate(90.0325 380.15 400.107)" fill="#DAE1FF"/>
<ellipse cx="494.624" cy="431.551" rx="9.65532" ry="9.28317" transform="rotate(90.0325 494.624 431.551)" fill="#DAE1FF"/>
<ellipse cx="494.641" cy="401.781" rx="9.65532" ry="9.28317" transform="rotate(90.0325 494.641 401.781)" fill="#DAE1FF"/>
<ellipse cx="494.658" cy="372.01" rx="9.65532" ry="9.28317" transform="rotate(90.0325 494.658 372.01)" fill="#DAE1FF"/>
<ellipse cx="494.675" cy="342.24" rx="9.65532" ry="9.28317" transform="rotate(90.0325 494.675 342.24)" fill="#DAE1FF"/>
<ellipse cx="494.692" cy="312.469" rx="9.65532" ry="9.28317" transform="rotate(90.0325 494.692 312.469)" fill="#DAE1FF"/>
<ellipse cx="467.43" cy="639.93" rx="9.65532" ry="9.28317" transform="rotate(90.0325 467.43 639.93)" fill="#DAE1FF"/>
<ellipse cx="440.354" cy="639.914" rx="9.65532" ry="9.28317" transform="rotate(90.0325 440.354 639.914)" fill="#DAE1FF"/>
<ellipse cx="413.278" cy="639.899" rx="9.65532" ry="9.28317" transform="rotate(90.0325 413.278 639.899)" fill="#DAE1FF"/>
<ellipse cx="738.156" cy="698.015" rx="9.65532" ry="9.28317" transform="rotate(90.0325 738.156 698.015)" fill="#DAE1FF"/>
<ellipse cx="711.08" cy="698" rx="9.65532" ry="9.28317" transform="rotate(90.0325 711.08 698)" fill="#DAE1FF"/>
<ellipse cx="684.004" cy="697.985" rx="9.65532" ry="9.28317" transform="rotate(90.0325 684.004 697.985)" fill="#DAE1FF"/>
<ellipse cx="656.929" cy="697.969" rx="9.65532" ry="9.28317" transform="rotate(90.0325 656.929 697.969)" fill="#DAE1FF"/>
<ellipse cx="629.853" cy="697.954" rx="9.65532" ry="9.28317" transform="rotate(90.0325 629.853 697.954)" fill="#DAE1FF"/>
<ellipse cx="602.777" cy="697.939" rx="9.65532" ry="9.28317" transform="rotate(90.0325 602.777 697.939)" fill="#DAE1FF"/>
<ellipse cx="575.701" cy="697.923" rx="9.65532" ry="9.28317" transform="rotate(90.0325 575.701 697.923)" fill="black"/>
<ellipse cx="548.625" cy="697.908" rx="9.65532" ry="9.28317" transform="rotate(90.0325 548.625 697.908)" fill="#DAE1FF"/>
<ellipse cx="521.549" cy="697.892" rx="9.65532" ry="9.28317" transform="rotate(90.0325 521.549 697.892)" fill="#DAE1FF"/>
<ellipse cx="494.473" cy="697.877" rx="9.65532" ry="9.28317" transform="rotate(90.0325 494.473 697.877)" fill="#DAE1FF"/>
<ellipse cx="467.397" cy="697.862" rx="9.65532" ry="9.28317" transform="rotate(90.0325 467.397 697.862)" fill="#DAE1FF"/>
<ellipse cx="440.321" cy="697.846" rx="9.65532" ry="9.28317" transform="rotate(90.0325 440.321 697.846)" fill="#DAE1FF"/>
<ellipse cx="683.972" cy="755.112" rx="9.65532" ry="9.28317" transform="rotate(90.0325 683.972 755.112)" fill="#DAE1FF"/>
<ellipse cx="656.896" cy="755.097" rx="9.65532" ry="9.28317" transform="rotate(90.0325 656.896 755.097)" fill="#DAE1FF"/>
<ellipse cx="629.82" cy="755.081" rx="9.65532" ry="9.28317" transform="rotate(90.0325 629.82 755.081)" fill="#DAE1FF"/>
<ellipse cx="602.744" cy="755.066" rx="9.65532" ry="9.28317" transform="rotate(90.0325 602.744 755.066)" fill="#DAE1FF"/>
<ellipse cx="575.668" cy="755.05" rx="9.65532" ry="9.28317" transform="rotate(90.0325 575.668 755.05)" fill="#DAE1FF"/>
<ellipse cx="548.593" cy="755.035" rx="9.65532" ry="9.28317" transform="rotate(90.0325 548.593 755.035)" fill="#DAE1FF"/>
<ellipse cx="521.517" cy="755.02" rx="9.65532" ry="9.28317" transform="rotate(90.0325 521.517 755.02)" fill="#DAE1FF"/>
<ellipse cx="494.441" cy="755.004" rx="9.65532" ry="9.28317" transform="rotate(90.0325 494.441 755.004)" fill="#DAE1FF"/>
<ellipse cx="467.365" cy="754.989" rx="9.65532" ry="9.28317" transform="rotate(90.0325 467.365 754.989)" fill="#DAE1FF"/>
<ellipse cx="440.289" cy="754.974" rx="9.65532" ry="9.28317" transform="rotate(90.0325 440.289 754.974)" fill="#DAE1FF"/>
<ellipse cx="413.213" cy="754.958" rx="9.65532" ry="9.28317" transform="rotate(90.0325 413.213 754.958)" fill="#DAE1FF"/>
<ellipse cx="386.137" cy="754.943" rx="9.65532" ry="9.28317" transform="rotate(90.0325 386.137 754.943)" fill="#DAE1FF"/>
<ellipse cx="359.061" cy="754.928" rx="9.65532" ry="9.28317" transform="rotate(90.0325 359.061 754.928)" fill="#DAE1FF"/>
<ellipse cx="755.928" cy="735.037" rx="4.82766" ry="4.64158" transform="rotate(90.0325 755.928 735.037)" fill="#DAE1FF"/>
<ellipse cx="760.578" cy="720.557" rx="4.82766" ry="4.64158" transform="rotate(90.0325 760.578 720.557)" fill="#DAE1FF"/>
<ellipse cx="774.503" cy="720.565" rx="4.82766" ry="4.64158" transform="rotate(90.0325 774.503 720.565)" fill="#DAE1FF"/>
<ellipse cx="728.062" cy="764.792" rx="4.82766" ry="4.64158" transform="rotate(90.0325 728.062 764.792)" fill="#DAE1FF"/>
<ellipse cx="740.448" cy="748.707" rx="4.82766" ry="4.64158" transform="rotate(90.0325 740.448 748.707)" fill="#DAE1FF"/>
<ellipse cx="735.756" cy="838.016" rx="4.82766" ry="4.64158" transform="rotate(90.0325 735.756 838.016)" fill="#DAE1FF"/>
<ellipse cx="700.93" cy="862.135" rx="4.82766" ry="4.64158" transform="rotate(90.0325 700.93 862.135)" fill="#DAE1FF"/>
<ellipse cx="687.778" cy="863.736" rx="4.82766" ry="4.64158" transform="rotate(90.0325 687.778 863.736)" fill="#DAE1FF"/>
<ellipse cx="435.546" cy="933.594" rx="4.82766" ry="4.64158" transform="rotate(90.0325 435.546 933.594)" fill="#DAE1FF"/>
<ellipse cx="548.514" cy="894.233" rx="4.82766" ry="4.64158" transform="rotate(90.0325 548.514 894.233)" fill="#DAE1FF"/>
<ellipse cx="412.346" cy="919.098" rx="4.82766" ry="4.64158" transform="rotate(90.0325 412.346 919.098)" fill="#DAE1FF"/>
<ellipse cx="340.385" cy="948.023" rx="4.82766" ry="4.64158" transform="rotate(90.0325 340.385 948.023)" fill="#DAE1FF"/>
<ellipse cx="340.394" cy="933.54" rx="4.82766" ry="4.64158" transform="rotate(90.0325 340.394 933.54)" fill="#DAE1FF"/>
<ellipse cx="392.233" cy="919.087" rx="4.82766" ry="4.64158" transform="rotate(90.0325 392.233 919.087)" fill="#DAE1FF"/>
<ellipse cx="370.572" cy="919.075" rx="4.82766" ry="4.64158" transform="rotate(90.0325 370.572 919.075)" fill="#DAE1FF"/>
<ellipse cx="407.713" cy="904.613" rx="4.82766" ry="4.64158" transform="rotate(90.0325 407.713 904.613)" fill="#DAE1FF"/>
<ellipse cx="436.328" cy="919.112" rx="4.82766" ry="4.64158" transform="rotate(90.0325 436.328 919.112)" fill="#DAE1FF"/>
<ellipse cx="453.363" cy="890.156" rx="4.82766" ry="4.64158" transform="rotate(90.0325 453.363 890.156)" fill="#DAE1FF"/>
<ellipse cx="296.29" cy="947.998" rx="4.82766" ry="4.64158" transform="rotate(90.0325 296.29 947.998)" fill="#DAE1FF"/>
<ellipse cx="464.243" cy="803.264" rx="4.82766" ry="4.64158" transform="rotate(90.0325 464.243 803.264)" fill="#DAE1FF"/>
<ellipse cx="450.318" cy="803.256" rx="4.82766" ry="4.64158" transform="rotate(90.0325 450.318 803.256)" fill="#DAE1FF"/>
<ellipse cx="435.628" cy="789.569" rx="4.82766" ry="4.64158" transform="rotate(90.0325 435.628 789.569)" fill="#DAE1FF"/>
<ellipse cx="338.952" cy="746.87" rx="4.82766" ry="4.64158" transform="rotate(90.0325 338.952 746.87)" fill="#DAE1FF"/>
<ellipse cx="367.585" cy="730.794" rx="4.82766" ry="4.64158" transform="rotate(90.0325 367.585 730.794)" fill="#DAE1FF"/>
<ellipse cx="383.056" cy="730.803" rx="4.82766" ry="4.64158" transform="rotate(90.0325 383.056 730.803)" fill="#DAE1FF"/>
<ellipse cx="394.669" cy="716.326" rx="4.82766" ry="4.64158" transform="rotate(90.0325 394.669 716.326)" fill="#DAE1FF"/>
<ellipse cx="409.375" cy="702.656" rx="4.82766" ry="4.64158" transform="rotate(90.0325 409.375 702.656)" fill="#DAE1FF"/>
<ellipse cx="383.104" cy="646.319" rx="4.82766" ry="4.64158" transform="rotate(90.0325 383.104 646.319)" fill="#DAE1FF"/>
<ellipse cx="394.717" cy="630.233" rx="4.82766" ry="4.64158" transform="rotate(90.0325 394.717 630.233)" fill="#DAE1FF"/>
<ellipse cx="367.632" cy="646.31" rx="4.82766" ry="4.64158" transform="rotate(90.0325 367.632 646.31)" fill="#DAE1FF"/>
<ellipse cx="383.114" cy="630.227" rx="4.82766" ry="4.64158" transform="rotate(90.0325 383.114 630.227)" fill="#DAE1FF"/>
<ellipse cx="394.726" cy="615.75" rx="4.82766" ry="4.64158" transform="rotate(90.0325 394.726 615.75)" fill="#DAE1FF"/>
<ellipse cx="398.603" cy="599.66" rx="4.82766" ry="4.64158" transform="rotate(90.0325 398.603 599.66)" fill="#DAE1FF"/>
<ellipse cx="381.583" cy="601.26" rx="4.82766" ry="4.64158" transform="rotate(90.0325 381.583 601.26)" fill="#DAE1FF"/>
<ellipse cx="398.611" cy="585.982" rx="4.82766" ry="4.64158" transform="rotate(90.0325 398.611 585.982)" fill="#DAE1FF"/>
<ellipse cx="380.044" cy="586.776" rx="4.82766" ry="4.64158" transform="rotate(90.0325 380.044 586.776)" fill="#DAE1FF"/>
<ellipse cx="511.024" cy="158.798" rx="4.82766" ry="4.64158" transform="rotate(90.0325 511.024 158.798)" fill="#DAE1FF"/>
<ellipse cx="538.883" cy="142.721" rx="4.82766" ry="4.64158" transform="rotate(90.0325 538.883 142.721)" fill="#DAE1FF"/>
<ellipse cx="507.908" cy="198.222" rx="4.82766" ry="4.64158" transform="rotate(90.0325 507.908 198.222)" fill="#DAE1FF"/>
<ellipse cx="516.431" cy="173.284" rx="4.82766" ry="4.64158" transform="rotate(90.0325 516.431 173.284)" fill="#DAE1FF"/>
<ellipse cx="524.977" cy="108.92" rx="4.82766" ry="4.64158" transform="rotate(90.0325 524.977 108.92)" fill="#DAE1FF"/>
<ellipse cx="451.27" cy="488.654" rx="4.82766" ry="4.64158" transform="rotate(90.0325 451.27 488.654)" fill="#DAE1FF"/>
<ellipse cx="410.305" cy="426.676" rx="4.82766" ry="4.64158" transform="rotate(90.0325 410.305 426.676)" fill="#DAE1FF"/>
<ellipse cx="383.228" cy="429.074" rx="4.82766" ry="4.64158" transform="rotate(90.0325 383.228 429.074)" fill="#DAE1FF"/>
<ellipse cx="455.41" cy="9.91328" rx="4.82766" ry="4.64158" transform="rotate(90.0325 455.41 9.91328)" fill="#DAE1FF"/>
<ellipse cx="357.939" cy="5.03035" rx="4.82766" ry="4.64158" transform="rotate(90.0325 357.939 5.03035)" fill="#DAE1FF"/>
<ellipse cx="315.257" cy="242.366" rx="4.82766" ry="4.64158" transform="rotate(90.0325 315.257 242.366)" fill="#DAE1FF"/>
<ellipse cx="48.9366" cy="600.267" rx="4.82766" ry="4.64158" transform="rotate(90.0325 48.9366 600.267)" fill="#DAE1FF"/>
<ellipse cx="218.484" cy="371.049" rx="4.82766" ry="4.64158" transform="rotate(90.0325 218.484 371.049)" fill="#DAE1FF"/>
<ellipse cx="256.195" cy="716.248" rx="4.82766" ry="4.64158" transform="rotate(90.0325 256.195 716.248)" fill="#DAE1FF"/>
<ellipse cx="283.32" cy="630.17" rx="4.82766" ry="4.64158" transform="rotate(90.0325 283.32 630.17)" fill="#DAE1FF"/>
<ellipse cx="283.328" cy="614.883" rx="4.82766" ry="4.64158" transform="rotate(90.0325 283.328 614.883)" fill="#DAE1FF"/>
<ellipse cx="247.271" cy="82.2102" rx="4.82766" ry="4.64158" transform="rotate(90.0325 247.271 82.2102)" fill="#DAE1FF"/>
<ellipse cx="247.279" cy="67.7272" rx="4.82766" ry="4.64158" transform="rotate(90.0325 247.279 67.7272)" fill="#DAE1FF"/>
<ellipse cx="258.894" cy="49.2277" rx="4.82766" ry="4.64158" transform="rotate(90.0325 258.894 49.2277)" fill="#DAE1FF"/>
<ellipse cx="286.759" cy="21.8868" rx="4.82766" ry="4.64158" transform="rotate(90.0325 286.759 21.8868)" fill="#DAE1FF"/>
<ellipse cx="248.038" cy="95.0844" rx="4.82766" ry="4.64158" transform="rotate(90.0325 248.038 95.0844)" fill="#DAE1FF"/>
<ellipse cx="232.558" cy="108.754" rx="4.82766" ry="4.64158" transform="rotate(90.0325 232.558 108.754)" fill="#DAE1FF"/>
<ellipse cx="232.55" cy="123.237" rx="4.82766" ry="4.64158" transform="rotate(90.0325 232.55 123.237)" fill="#DAE1FF"/>
<ellipse cx="218.59" cy="184.379" rx="4.82766" ry="4.64158" transform="rotate(90.0325 218.59 184.379)" fill="#DAE1FF"/>
<ellipse cx="218.598" cy="169.896" rx="4.82766" ry="4.64158" transform="rotate(90.0325 218.598 169.896)" fill="#DAE1FF"/>
<ellipse cx="218.607" cy="153.804" rx="4.82766" ry="4.64158" transform="rotate(90.0325 218.607 153.804)" fill="#DAE1FF"/>
<ellipse cx="218.617" cy="137.712" rx="4.82766" ry="4.64158" transform="rotate(90.0325 218.617 137.712)" fill="#DAE1FF"/>
<ellipse cx="258.843" cy="138.539" rx="4.82766" ry="4.64158" transform="rotate(90.0325 258.843 138.539)" fill="#DAE1FF"/>
<ellipse cx="271.212" cy="153.834" rx="4.82766" ry="4.64158" transform="rotate(90.0325 271.212 153.834)" fill="#DAE1FF"/>
<ellipse cx="272.768" cy="137.743" rx="4.82766" ry="4.64158" transform="rotate(90.0325 272.768 137.743)" fill="#DAE1FF"/>
<ellipse cx="272.776" cy="124.064" rx="4.82766" ry="4.64158" transform="rotate(90.0325 272.776 124.064)" fill="#DAE1FF"/>
<ellipse cx="288.233" cy="150.625" rx="4.82766" ry="4.64158" transform="rotate(90.0325 288.233 150.625)" fill="#DAE1FF"/>
<ellipse cx="272.743" cy="182.801" rx="4.82766" ry="4.64158" transform="rotate(90.0325 272.743 182.801)" fill="#DAE1FF"/>
<ellipse cx="302.139" cy="184.427" rx="4.82766" ry="4.64158" transform="rotate(90.0325 302.139 184.427)" fill="#DAE1FF"/>
<ellipse cx="283.581" cy="168.324" rx="4.82766" ry="4.64158" transform="rotate(90.0325 283.581 168.324)" fill="#DAE1FF"/>
<ellipse cx="297.506" cy="168.332" rx="4.82766" ry="4.64158" transform="rotate(90.0325 297.506 168.332)" fill="#DAE1FF"/>
<ellipse cx="451.484" cy="111.292" rx="4.82766" ry="4.64158" transform="rotate(90.0325 451.484 111.292)" fill="#DAE1FF"/>
<ellipse cx="524.951" cy="155.587" rx="4.82766" ry="4.64158" transform="rotate(90.0325 524.951 155.587)" fill="#DAE1FF"/>
<ellipse cx="243.314" cy="239.107" rx="4.82766" ry="4.64158" transform="rotate(90.0325 243.314 239.107)" fill="#DAE1FF"/>
<ellipse cx="299.678" cy="430.636" rx="4.82766" ry="4.64158" transform="rotate(90.0325 299.678 430.636)" fill="#DAE1FF"/>
<ellipse cx="274.102" cy="514.301" rx="4.82766" ry="4.64158" transform="rotate(90.0325 274.102 514.301)" fill="#DAE1FF"/>
<ellipse cx="178.054" cy="729.882" rx="4.82766" ry="4.64158" transform="rotate(90.0325 178.054 729.882)" fill="#DAE1FF"/>
<ellipse cx="160.261" cy="729.872" rx="4.82766" ry="4.64158" transform="rotate(90.0325 160.261 729.872)" fill="#DAE1FF"/>
<ellipse cx="147.877" cy="741.934" rx="4.82766" ry="4.64158" transform="rotate(90.0325 147.877 741.934)" fill="#DAE1FF"/>
<ellipse cx="132.396" cy="756.408" rx="4.82766" ry="4.64158" transform="rotate(90.0325 132.396 756.408)" fill="#DAE1FF"/>
<ellipse cx="48.8425" cy="766.016" rx="4.82766" ry="4.64158" transform="rotate(90.0325 48.8425 766.016)" fill="#DAE1FF"/>
<ellipse cx="34.9232" cy="756.353" rx="4.82766" ry="4.64158" transform="rotate(90.0325 34.9232 756.353)" fill="#DAE1FF"/>
<ellipse cx="21.0012" cy="751.517" rx="4.82766" ry="4.64158" transform="rotate(90.0325 21.0012 751.517)" fill="#DAE1FF"/>
<ellipse cx="21.0122" cy="732.207" rx="4.82766" ry="4.64158" transform="rotate(90.0325 21.0122 732.207)" fill="#DAE1FF"/>
<ellipse cx="4.76663" cy="732.198" rx="4.82766" ry="4.64158" transform="rotate(90.0325 4.76663 732.198)" fill="#DAE1FF"/>
<ellipse cx="5.5585" cy="700.014" rx="4.82766" ry="4.64158" transform="rotate(90.0325 5.5585 700.014)" fill="#DAE1FF"/>
<ellipse cx="21.0305" cy="700.022" rx="4.82766" ry="4.64158" transform="rotate(90.0325 21.0305 700.022)" fill="#DAE1FF"/>
<ellipse cx="31.0926" cy="690.373" rx="4.82766" ry="4.64158" transform="rotate(90.0325 31.0926 690.373)" fill="#DAE1FF"/>
<ellipse cx="45.0247" cy="677.507" rx="4.82766" ry="4.64158" transform="rotate(90.0325 45.0247 677.507)" fill="#DAE1FF"/>
<ellipse cx="34.9807" cy="654.972" rx="4.82766" ry="4.64158" transform="rotate(90.0325 34.9807 654.972)" fill="#DAE1FF"/>
<ellipse cx="49.6772" cy="658.199" rx="4.82766" ry="4.64158" transform="rotate(90.0325 49.6772 658.199)" fill="#DAE1FF"/>
<ellipse cx="77.5514" cy="614.766" rx="4.82766" ry="4.64158" transform="rotate(90.0325 77.5514 614.766)" fill="#DAE1FF"/>
<ellipse cx="134.879" cy="470.773" rx="4.82766" ry="4.64158" transform="rotate(90.0325 134.879 470.773)" fill="#DAE1FF"/>
<ellipse cx="144.171" cy="456.295" rx="4.82766" ry="4.64158" transform="rotate(90.0325 144.171 456.295)" fill="#DAE1FF"/>
<ellipse cx="256.979" cy="696.938" rx="4.82766" ry="4.64158" transform="rotate(90.0325 256.979 696.938)" fill="#DAE1FF"/>
<ellipse cx="40.4434" cy="571.296" rx="4.82766" ry="4.64158" transform="rotate(90.0325 40.4434 571.296)" fill="#DAE1FF"/>
<ellipse cx="35.8109" cy="555.201" rx="4.82766" ry="4.64158" transform="rotate(90.0325 35.8109 555.201)" fill="#DAE1FF"/>
<ellipse cx="35.8501" cy="486.005" rx="4.82766" ry="4.64158" transform="rotate(90.0325 35.8501 486.005)" fill="#DAE1FF"/>
<ellipse cx="53.652" cy="469.922" rx="4.82766" ry="4.64158" transform="rotate(90.0325 53.652 469.922)" fill="#DAE1FF"/>
<ellipse cx="76.86" cy="469.936" rx="4.82766" ry="4.64158" transform="rotate(90.0325 76.86 469.936)" fill="#DAE1FF"/>
<ellipse cx="148.842" cy="403.998" rx="4.82766" ry="4.64158" transform="rotate(90.0325 148.842 403.998)" fill="#DAE1FF"/>
<ellipse cx="160.457" cy="383.89" rx="4.82766" ry="4.64158" transform="rotate(90.0325 160.457 383.89)" fill="#DAE1FF"/>
<ellipse cx="175.929" cy="383.898" rx="4.82766" ry="4.64158" transform="rotate(90.0325 175.929 383.898)" fill="#DAE1FF"/>
<ellipse cx="216.931" cy="382.312" rx="4.82766" ry="4.64158" transform="rotate(90.0325 216.931 382.312)" fill="#DAE1FF"/>
<ellipse cx="230.08" cy="386.343" rx="4.82766" ry="4.64158" transform="rotate(90.0325 230.08 386.343)" fill="#DAE1FF"/>
<ellipse cx="256.382" cy="386.358" rx="4.82766" ry="4.64158" transform="rotate(90.0325 256.382 386.358)" fill="#DAE1FF"/>
<ellipse cx="271.082" cy="383.952" rx="4.82766" ry="4.64158" transform="rotate(90.0325 271.082 383.952)" fill="#DAE1FF"/>
<ellipse cx="286.554" cy="383.961" rx="4.82766" ry="4.64158" transform="rotate(90.0325 286.554 383.961)" fill="#DAE1FF"/>
<ellipse cx="299.689" cy="411.325" rx="4.82766" ry="4.64158" transform="rotate(90.0325 299.689 411.325)" fill="#DAE1FF"/>
<ellipse cx="311.278" cy="438.689" rx="4.82766" ry="4.64158" transform="rotate(90.0325 311.278 438.689)" fill="#DAE1FF"/>
<ellipse cx="308.931" cy="483.746" rx="4.82766" ry="4.64158" transform="rotate(90.0325 308.931 483.746)" fill="#DAE1FF"/>
<ellipse cx="258.794" cy="225.437" rx="4.82766" ry="4.64158" transform="rotate(90.0325 258.794 225.437)" fill="#DAE1FF"/>
<ellipse cx="283.549" cy="225.451" rx="4.82766" ry="4.64158" transform="rotate(90.0325 283.549 225.451)" fill="#DAE1FF"/>
<ellipse cx="297.472" cy="227.873" rx="4.82766" ry="4.64158" transform="rotate(90.0325 297.472 227.873)" fill="#DAE1FF"/>
<ellipse cx="329.949" cy="252.834" rx="4.82766" ry="4.64158" transform="rotate(90.0325 329.949 252.834)" fill="#DAE1FF"/>
<ellipse cx="329.167" cy="268.122" rx="4.82766" ry="4.64158" transform="rotate(90.0325 329.167 268.122)" fill="#DAE1FF"/>
<ellipse cx="326.838" cy="282.603" rx="4.82766" ry="4.64158" transform="rotate(90.0325 326.838 282.603)" fill="#DAE1FF"/>
<ellipse cx="272.652" cy="342.114" rx="4.82766" ry="4.64158" transform="rotate(90.0325 272.652 342.114)" fill="#DAE1FF"/>
<ellipse cx="312.863" cy="371.102" rx="4.82766" ry="4.64158" transform="rotate(90.0325 312.863 371.102)" fill="#DAE1FF"/>
<ellipse cx="315.192" cy="356.621" rx="4.82766" ry="4.64158" transform="rotate(90.0325 315.192 356.621)" fill="#DAE1FF"/>
<ellipse cx="317.521" cy="342.139" rx="4.82766" ry="4.64158" transform="rotate(90.0325 317.521 342.139)" fill="#DAE1FF"/>
<ellipse cx="326.813" cy="326.857" rx="4.82766" ry="4.64158" transform="rotate(90.0325 326.813 326.857)" fill="#DAE1FF"/>
<ellipse cx="382.217" cy="847.471" rx="4.82766" ry="4.64158" transform="rotate(90.0325 382.217 847.471)" fill="#DAE1FF"/>
<ellipse cx="367.009" cy="381.593" rx="4.82766" ry="4.64158" transform="rotate(90.0325 367.009 381.593)" fill="#DAE1FF"/>
<ellipse cx="342.268" cy="356.636" rx="4.82766" ry="4.64158" transform="rotate(90.0325 342.268 356.636)" fill="#DAE1FF"/>
<ellipse cx="342.276" cy="342.153" rx="4.82766" ry="4.64158" transform="rotate(90.0325 342.276 342.153)" fill="#DAE1FF"/>
<ellipse cx="396.547" cy="132.985" rx="4.82766" ry="4.64158" transform="rotate(90.0325 396.547 132.985)" fill="#DAE1FF"/>
<ellipse cx="412.789" cy="137.822" rx="4.82766" ry="4.64158" transform="rotate(90.0325 412.789 137.822)" fill="#DAE1FF"/>
<ellipse cx="398.88" cy="111.262" rx="4.82766" ry="4.64158" transform="rotate(90.0325 398.88 111.262)" fill="#DAE1FF"/>
<ellipse cx="434.492" cy="64.6149" rx="4.82766" ry="4.64158" transform="rotate(90.0325 434.492 64.6149)" fill="#DAE1FF"/>
<ellipse cx="415.135" cy="93.5699" rx="4.82766" ry="4.64158" transform="rotate(90.0325 415.135 93.5699)" fill="#DAE1FF"/>
<ellipse cx="354.822" cy="45.2591" rx="4.82766" ry="4.64158" transform="rotate(90.0325 354.822 45.2591)" fill="#DAE1FF"/>
<ellipse cx="453.845" cy="40.4876" rx="4.82766" ry="4.64158" transform="rotate(90.0325 453.845 40.4876)" fill="#DAE1FF"/>
<ellipse cx="481.655" cy="111.309" rx="4.82766" ry="4.64158" transform="rotate(90.0325 481.655 111.309)" fill="#DAE1FF"/>
<ellipse cx="440.711" cy="11.5142" rx="4.82766" ry="4.64158" transform="rotate(90.0325 440.711 11.5142)" fill="#DAE1FF"/>
<ellipse cx="454.628" cy="25.2005" rx="4.82766" ry="4.64158" transform="rotate(90.0325 454.628 25.2005)" fill="#DAE1FF"/>
<ellipse cx="357.93" cy="21.1226" rx="4.82766" ry="4.64158" transform="rotate(90.0325 357.93 21.1226)" fill="#DAE1FF"/>
<ellipse cx="438.382" cy="25.1912" rx="4.82766" ry="4.64158" transform="rotate(90.0325 438.382 25.1912)" fill="#DAE1FF"/>
<ellipse cx="421.363" cy="24.377" rx="4.82766" ry="4.64158" transform="rotate(90.0325 421.363 24.377)" fill="#DAE1FF"/>
<ellipse cx="374.947" cy="25.1552" rx="4.82766" ry="4.64158" transform="rotate(90.0325 374.947 25.1552)" fill="#DAE1FF"/>
<ellipse cx="391.966" cy="25.1649" rx="4.82766" ry="4.64158" transform="rotate(90.0325 391.966 25.1649)" fill="#DAE1FF"/>
<ellipse cx="407.438" cy="25.9783" rx="4.82766" ry="4.64158" transform="rotate(90.0325 407.438 25.9783)" fill="#DAE1FF"/>
<ellipse cx="508.731" cy="111.324" rx="4.82766" ry="4.64158" transform="rotate(90.0325 508.731 111.324)" fill="#DAE1FF"/>
<ellipse cx="538.12" cy="124.215" rx="4.82766" ry="4.64158" transform="rotate(90.0325 538.12 124.215)" fill="#DAE1FF"/>
<ellipse cx="480.792" cy="268.208" rx="4.82766" ry="4.64158" transform="rotate(90.0325 480.792 268.208)" fill="#DAE1FF"/>
<ellipse cx="459.126" cy="277.851" rx="4.82766" ry="4.64158" transform="rotate(90.0325 459.126 277.851)" fill="#DAE1FF"/>
<ellipse cx="571.224" cy="406.652" rx="4.82766" ry="4.64158" transform="rotate(90.0325 571.224 406.652)" fill="#DAE1FF"/>
<ellipse cx="623.026" cy="458.981" rx="4.82766" ry="4.64158" transform="rotate(90.0325 623.026 458.981)" fill="#DAE1FF"/>
<ellipse cx="566.594" cy="386.534" rx="4.82766" ry="4.64158" transform="rotate(90.0325 566.594 386.534)" fill="#DAE1FF"/>
<ellipse cx="632.302" cy="471.055" rx="4.82766" ry="4.64158" transform="rotate(90.0325 632.302 471.055)" fill="#DAE1FF"/>
<ellipse cx="646.984" cy="500.029" rx="4.82766" ry="4.64158" transform="rotate(90.0325 646.984 500.029)" fill="#DAE1FF"/>
<ellipse cx="647.748" cy="516.122" rx="4.82766" ry="4.64158" transform="rotate(90.0325 647.748 516.122)" fill="#DAE1FF"/>
<ellipse cx="677.111" cy="575.68" rx="4.82766" ry="4.64158" transform="rotate(90.0325 677.111 575.68)" fill="#DAE1FF"/>
<ellipse cx="661.665" cy="530.613" rx="4.82766" ry="4.64158" transform="rotate(90.0325 661.665 530.613)" fill="#DAE1FF"/>
<ellipse cx="715.766" cy="619.955" rx="4.82766" ry="4.64158" transform="rotate(90.0325 715.766 619.955)" fill="#DAE1FF"/>
<ellipse cx="728.917" cy="619.963" rx="4.82766" ry="4.64158" transform="rotate(90.0325 728.917 619.963)" fill="#DAE1FF"/>
<ellipse cx="480.64" cy="536.143" rx="4.82766" ry="4.64158" transform="rotate(90.0325 480.64 536.143)" fill="#DAE1FF"/>
<ellipse cx="480.622" cy="567.522" rx="4.82766" ry="4.64158" transform="rotate(90.0325 480.622 567.522)" fill="#DAE1FF"/>
<ellipse cx="367.558" cy="777.461" rx="4.82766" ry="4.64158" transform="rotate(90.0325 367.558 777.461)" fill="#DAE1FF"/>
<ellipse cx="353.635" cy="774.235" rx="4.82766" ry="4.64158" transform="rotate(90.0325 353.635 774.235)" fill="#DAE1FF"/>
<ellipse cx="421.71" cy="777.492" rx="4.82766" ry="4.64158" transform="rotate(90.0325 421.71 777.492)" fill="#DAE1FF"/>
<ellipse cx="448.786" cy="777.508" rx="4.82766" ry="4.64158" transform="rotate(90.0325 448.786 777.508)" fill="#DAE1FF"/>
<ellipse cx="632.08" cy="862.096" rx="4.82766" ry="4.64158" transform="rotate(90.0325 632.08 862.096)" fill="#DAE1FF"/>
</svg>
