<?xml version="1.0" standalone="no"?>
<!DOCTYPE svg PUBLIC "-//W3C//DTD SVG 20010904//EN"
 "http://www.w3.org/TR/2001/REC-SVG-20010904/DTD/svg10.dtd">
<svg version="1.0" xmlns="http://www.w3.org/2000/svg"
 width="320.000000pt" height="320.000000pt" viewBox="0 0 320.000000 320.000000"
 preserveAspectRatio="xMidYMid meet">
<metadata>
Created by potrace 1.14, written by Peter Selinger 2001-2017
</metadata>
<g transform="translate(0.000000,320.000000) scale(0.100000,-0.100000)"
fill="#000000" stroke="none">
<path d="M1380 3184 c-47 -8 -97 -16 -112 -18 -15 -3 -54 -12 -85 -21 -32 -10
-65 -18 -73 -20 -8 -2 -55 -20 -105 -40 -405 -164 -729 -488 -889 -888 -38
-94 -90 -288 -103 -383 -10 -75 -9 -351 1 -424 4 -30 9 -73 11 -96 9 -116 128
-405 232 -564 121 -185 325 -387 483 -478 25 -14 47 -29 50 -33 10 -13 216
-107 290 -132 195 -66 336 -87 555 -82 176 4 200 7 319 35 406 95 757 338 978
675 134 205 216 418 251 655 14 93 16 388 2 455 -3 17 -13 66 -21 109 -9 43
-22 96 -30 118 -7 21 -14 40 -14 43 -1 8 -11 37 -42 120 -75 203 -299 501
-475 632 -21 15 -40 30 -43 33 -11 13 -149 100 -210 133 -129 70 -332 140
-470 162 -25 4 -54 9 -65 12 -52 12 -356 10 -435 -3z"/>
</g>
</svg>
